# xmcd
#
# Track frame offsets:
#	150
#	997
#	13717
#	17657
#	28990
#	30447
#	53795
#	74105
#	99287
#	135300
#	172660
#	224790
#	251345
#	286970
#
# Disc length: 4129 seconds
# Revision: 0
# Processed by: cddbd v1.5.2PL0 Copyright (c) Steve Scherf et al.
# Submitted via: dBpowerAMP V12.0
#
DISCID=b4101f0e
DTITLE=Freddie King - This Is The Blues
DYEAR=1974
DGENRE=
TTITLE0=Introduction
TTITLE1=That's Alright (Solo Acoustic)
TTITLE2=Interview
TTITLE3=Dust My Broom (Solo Acoustic)
TTITLE4=Interview
TTITLE5=Big Legged Woman
TTITLE6=Woman Across The River
TTITLE7=Key To The Highway
TTITLE8=Let The Good Times Roll
TTITLE9=Ain't Nobody's Business
TTITLE10=Sweet Home Chicago
TTITLE11=Dust My Broom
TTITLE12=Hide Away Medley
TTITLE13=Interview
EXTD=
EXTT0=
EXTT1=
EXTT2=
EXTT3=
EXTT4=
EXTT5=
EXTT6=
EXTT7=
EXTT8=
EXTT9=
EXTT10=
EXTT11=
EXTT12=
EXTT13=
PLAYORDER=
